<svg width="22" height="22" viewBox="0 0 22 22" fill="none" xmlns="http://www.w3.org/2000/svg">
<g id="heroicons-solid/arrow-up-left">
<path id="Vector 431 (Stroke)" fill-rule="evenodd" clip-rule="evenodd" d="M4.71431 5.6668L4.71431 14.1429C4.71431 14.5149 4.41279 14.8164 4.04084 14.8164C3.66889 14.8164 3.36737 14.5149 3.36737 14.1429L3.36737 4.0409C3.36737 3.86229 3.43833 3.69099 3.56463 3.56469C3.69093 3.43839 3.86222 3.36743 4.04084 3.36743L14.1429 3.36743C14.5148 3.36743 14.8164 3.66895 14.8164 4.0409C14.8164 4.41285 14.5148 4.71437 14.1429 4.71437L5.66674 4.71437L17.9864 17.0341C18.2495 17.2971 18.2495 17.7235 17.9864 17.9865C17.7234 18.2495 17.297 18.2495 17.034 17.9865L4.71431 5.6668Z" fill="white"/>
</g>
</svg>
