<svg width="40" height="40" viewBox="0 0 40 40" fill="none" xmlns="http://www.w3.org/2000/svg">
<g id="heroicons-solid/shopping-bag">
<path id="Subtract" fill-rule="evenodd" clip-rule="evenodd" d="M12.5 10V11.25H9.18812C7.58887 11.25 6.2477 12.4574 6.08029 14.0479L3.97503 34.0479C3.7808 35.893 5.22754 37.5 7.08285 37.5H32.9174C34.7727 37.5 36.2195 35.893 36.0252 34.0479L33.92 14.0479C33.7525 12.4574 32.4114 11.25 30.8121 11.25H27.5V10C27.5 5.85786 24.1421 2.5 20 2.5C15.8579 2.5 12.5 5.85786 12.5 10ZM20 5C17.2386 5 15 7.23858 15 10V11.25H25V10C25 7.23858 22.7614 5 20 5ZM15 18.75C15 21.5114 17.2386 23.75 20 23.75C22.7614 23.75 25 21.5114 25 18.75V17.5C25 16.8096 25.5596 16.25 26.25 16.25C26.9404 16.25 27.5 16.8096 27.5 17.5V18.75C27.5 22.8921 24.1421 26.25 20 26.25C15.8579 26.25 12.5 22.8921 12.5 18.75V17.5C12.5 16.8096 13.0596 16.25 13.75 16.25C14.4404 16.25 15 16.8096 15 17.5V18.75Z" fill="white"/>
</g>
</svg>
