<svg width="842" height="552" viewBox="0 0 842 552" fill="none" xmlns="http://www.w3.org/2000/svg">
<path d="M50.4118 1H1V46.8333M50.4118 1V46.8333M50.4118 1H99.8235M50.4118 46.8333H1M50.4118 46.8333H99.8235M50.4118 46.8333V92.6667M1 46.8333V92.6667M99.8235 1V46.8333M99.8235 1H149.235M99.8235 46.8333H149.235M99.8235 46.8333V92.6667M149.235 1V46.8333M149.235 1H198.647M149.235 46.8333H198.647M149.235 46.8333V92.6667M198.647 1V46.8333M198.647 1H248.059M198.647 46.8333H248.059M198.647 46.8333V92.6667M248.059 1V46.8333M248.059 1H297.471M248.059 46.8333H297.471M248.059 46.8333V92.6667M297.471 1V46.8333M297.471 1H346.882M297.471 46.8333H346.882M297.471 46.8333V92.6667M346.882 1V46.8333M346.882 1H396.294M346.882 46.8333H396.294M346.882 46.8333V92.6667M396.294 1V46.8333M396.294 1H445.706M396.294 46.8333H445.706M396.294 46.8333V92.6667M445.706 1V46.8333M445.706 1H495.118M445.706 46.8333H495.118M445.706 46.8333V92.6667M495.118 1V46.8333M495.118 1H544.529M495.118 46.8333H544.529M495.118 46.8333V92.6667M544.529 1V46.8333M544.529 1H593.941M544.529 46.8333H593.941M544.529 46.8333V92.6667M593.941 1V46.8333M593.941 1H643.353M593.941 46.8333H643.353M593.941 46.8333V92.6667M643.353 1V46.8333M643.353 1H692.765M643.353 46.8333H692.765M643.353 46.8333V92.6667M692.765 1V46.8333M692.765 1H742.177M692.765 46.8333H742.177M692.765 46.8333V92.6667M742.177 1V46.8333M742.177 1H791.588M742.177 46.8333H791.588M742.177 46.8333V92.6667M791.588 1V46.8333M791.588 1H841V46.8333M791.588 46.8333H841M791.588 46.8333V92.6667M841 46.8333V92.6667M50.4118 92.6667H1M50.4118 92.6667H99.8235M50.4118 92.6667V138.5M1 92.6667V138.5M99.8235 92.6667H149.235M99.8235 92.6667V138.5M149.235 92.6667H198.647M149.235 92.6667V138.5M198.647 92.6667H248.059M198.647 92.6667V138.5M248.059 92.6667H297.471M248.059 92.6667V138.5M297.471 92.6667H346.882M297.471 92.6667V138.5M346.882 92.6667H396.294M346.882 92.6667V138.5M396.294 92.6667H445.706M396.294 92.6667V138.5M445.706 92.6667H495.118M445.706 92.6667V138.5M495.118 92.6667H544.529M495.118 92.6667V138.5M544.529 92.6667H593.941M544.529 92.6667V138.5M593.941 92.6667H643.353M593.941 92.6667V138.5M643.353 92.6667H692.765M643.353 92.6667V138.5M692.765 92.6667H742.177M692.765 92.6667V138.5M742.177 92.6667H791.588M742.177 92.6667V138.5M791.588 92.6667H841M791.588 92.6667V138.5M841 92.6667V138.5M50.4118 138.5H1M50.4118 138.5H99.8235M50.4118 138.5V184.333M1 138.5V184.333M99.8235 138.5H149.235M99.8235 138.5V184.333M149.235 138.5H198.647M149.235 138.5V184.333M198.647 138.5H248.059M198.647 138.5V184.333M248.059 138.5H297.471M248.059 138.5V184.333M297.471 138.5H346.882M297.471 138.5V184.333M346.882 138.5H396.294M346.882 138.5V184.333M396.294 138.5H445.706M396.294 138.5V184.333M445.706 138.5H495.118M445.706 138.5V184.333M495.118 138.5H544.529M495.118 138.5V184.333M544.529 138.5H593.941M544.529 138.5V184.333M593.941 138.5H643.353M593.941 138.5V184.333M643.353 138.5H692.765M643.353 138.5V184.333M692.765 138.5H742.177M692.765 138.5V184.333M742.177 138.5H791.588M742.177 138.5V184.333M791.588 138.5H841M791.588 138.5V184.333M841 138.5V184.333M50.4118 184.333H1M50.4118 184.333H99.8235M50.4118 184.333V230.167M1 184.333V230.167M99.8235 184.333H149.235M99.8235 184.333V230.167M149.235 184.333H198.647M149.235 184.333V230.167M198.647 184.333H248.059M198.647 184.333V230.167M248.059 184.333H297.471M248.059 184.333V230.167M297.471 184.333H346.882M297.471 184.333V230.167M346.882 184.333H396.294M346.882 184.333V230.167M396.294 184.333H445.706M396.294 184.333V230.167M445.706 184.333H495.118M445.706 184.333V230.167M495.118 184.333H544.529M495.118 184.333V230.167M544.529 184.333H593.941M544.529 184.333V230.167M593.941 184.333H643.353M593.941 184.333V230.167M643.353 184.333H692.765M643.353 184.333V230.167M692.765 184.333H742.177M692.765 184.333V230.167M742.177 184.333H791.588M742.177 184.333V230.167M791.588 184.333H841M791.588 184.333V230.167M841 184.333V230.167M50.4118 230.167H1M50.4118 230.167H99.8235M50.4118 230.167V276M1 230.167V276M99.8235 230.167H149.235M99.8235 230.167V276M149.235 230.167H198.647M149.235 230.167V276M198.647 230.167H248.059M198.647 230.167V276M248.059 230.167H297.471M248.059 230.167V276M297.471 230.167H346.882M297.471 230.167V276M346.882 230.167H396.294M346.882 230.167V276M396.294 230.167H445.706M396.294 230.167V276M445.706 230.167H495.118M445.706 230.167V276M495.118 230.167H544.529M495.118 230.167V276M544.529 230.167H593.941M544.529 230.167V276M593.941 230.167H643.353M593.941 230.167V276M643.353 230.167H692.765M643.353 230.167V276M692.765 230.167H742.177M692.765 230.167V276M742.177 230.167H791.588M742.177 230.167V276M791.588 230.167H841M791.588 230.167V276M841 230.167V276M50.4118 276H1M50.4118 276H99.8235M50.4118 276V321.833M1 276V321.833M99.8235 276H149.235M99.8235 276V321.833M149.235 276H198.647M149.235 276V321.833M198.647 276H248.059M198.647 276V321.833M248.059 276H297.471M248.059 276V321.833M297.471 276H346.882M297.471 276V321.833M346.882 276H396.294M346.882 276V321.833M396.294 276H445.706M396.294 276V321.833M445.706 276H495.118M445.706 276V321.833M495.118 276H544.529M495.118 276V321.833M544.529 276H593.941M544.529 276V321.833M593.941 276H643.353M593.941 276V321.833M643.353 276H692.765M643.353 276V321.833M692.765 276H742.177M692.765 276V321.833M742.177 276H791.588M742.177 276V321.833M791.588 276H841M791.588 276V321.833M841 276V321.833M50.4118 321.833H1M50.4118 321.833H99.8235M50.4118 321.833V367.667M1 321.833V367.667M99.8235 321.833H149.235M99.8235 321.833V367.667M149.235 321.833H198.647M149.235 321.833V367.667M198.647 321.833H248.059M198.647 321.833V367.667M248.059 321.833H297.471M248.059 321.833V367.667M297.471 321.833H346.882M297.471 321.833V367.667M346.882 321.833H396.294M346.882 321.833V367.667M396.294 321.833H445.706M396.294 321.833V367.667M445.706 321.833H495.118M445.706 321.833V367.667M495.118 321.833H544.529M495.118 321.833V367.667M544.529 321.833H593.941M544.529 321.833V367.667M593.941 321.833H643.353M593.941 321.833V367.667M643.353 321.833H692.765M643.353 321.833V367.667M692.765 321.833H742.177M692.765 321.833V367.667M742.177 321.833H791.588M742.177 321.833V367.667M791.588 321.833H841M791.588 321.833V367.667M841 321.833V367.667M50.4118 367.667H1M50.4118 367.667H99.8235M50.4118 367.667V413.5M1 367.667V413.5M99.8235 367.667H149.235M99.8235 367.667V413.5M149.235 367.667H198.647M149.235 367.667V413.5M198.647 367.667H248.059M198.647 367.667V413.5M248.059 367.667H297.471M248.059 367.667V413.5M297.471 367.667H346.882M297.471 367.667V413.5M346.882 367.667H396.294M346.882 367.667V413.5M396.294 367.667H445.706M396.294 367.667V413.5M445.706 367.667H495.118M445.706 367.667V413.5M495.118 367.667H544.529M495.118 367.667V413.5M544.529 367.667H593.941M544.529 367.667V413.5M593.941 367.667H643.353M593.941 367.667V413.5M643.353 367.667H692.765M643.353 367.667V413.5M692.765 367.667H742.177M692.765 367.667V413.5M742.177 367.667H791.588M742.177 367.667V413.5M791.588 367.667H841M791.588 367.667V413.5M841 367.667V413.5M50.4118 413.5H1M50.4118 413.5H99.8235M50.4118 413.5V459.333M1 413.5V459.333M99.8235 413.5H149.235M99.8235 413.5V459.333M149.235 413.5H198.647M149.235 413.5V459.333M198.647 413.5H248.059M198.647 413.5V459.333M248.059 413.5H297.471M248.059 413.5V459.333M297.471 413.5H346.882M297.471 413.5V459.333M346.882 413.5H396.294M346.882 413.5V459.333M396.294 413.5H445.706M396.294 413.5V459.333M445.706 413.5H495.118M445.706 413.5V459.333M495.118 413.5H544.529M495.118 413.5V459.333M544.529 413.5H593.941M544.529 413.5V459.333M593.941 413.5H643.353M593.941 413.5V459.333M643.353 413.5H692.765M643.353 413.5V459.333M692.765 413.5H742.177M692.765 413.5V459.333M742.177 413.5H791.588M742.177 413.5V459.333M791.588 413.5H841M791.588 413.5V459.333M841 413.5V459.333M50.4118 459.333H1M50.4118 459.333H99.8235M50.4118 459.333V505.167M1 459.333V505.167M99.8235 459.333H149.235M99.8235 459.333V505.167M149.235 459.333H198.647M149.235 459.333V505.167M198.647 459.333H248.059M198.647 459.333V505.167M248.059 459.333H297.471M248.059 459.333V505.167M297.471 459.333H346.882M297.471 459.333V505.167M346.882 459.333H396.294M346.882 459.333V505.167M396.294 459.333H445.706M396.294 459.333V505.167M445.706 459.333H495.118M445.706 459.333V505.167M495.118 459.333H544.529M495.118 459.333V505.167M544.529 459.333H593.941M544.529 459.333V505.167M593.941 459.333H643.353M593.941 459.333V505.167M643.353 459.333H692.765M643.353 459.333V505.167M692.765 459.333H742.177M692.765 459.333V505.167M742.177 459.333H791.588M742.177 459.333V505.167M791.588 459.333H841M791.588 459.333V505.167M841 459.333V505.167M50.4118 505.167H1M50.4118 505.167H99.8235M50.4118 505.167V551M1 505.167V551H50.4118M99.8235 505.167H149.235M99.8235 505.167V551M149.235 505.167H198.647M149.235 505.167V551M198.647 505.167H248.059M198.647 505.167V551M248.059 505.167H297.471M248.059 505.167V551M297.471 505.167H346.882M297.471 505.167V551M346.882 505.167H396.294M346.882 505.167V551M396.294 505.167H445.706M396.294 505.167V551M445.706 505.167H495.118M445.706 505.167V551M495.118 505.167H544.529M495.118 505.167V551M544.529 505.167H593.941M544.529 505.167V551M593.941 505.167H643.353M593.941 505.167V551M643.353 505.167H692.765M643.353 505.167V551M692.765 505.167H742.177M692.765 505.167V551M742.177 505.167H791.588M742.177 505.167V551M791.588 505.167H841M791.588 505.167V551M841 505.167V551H791.588M50.4118 551H99.8235M99.8235 551H149.235M149.235 551H198.647M198.647 551H248.059M248.059 551H297.471M297.471 551H346.882M346.882 551H396.294M396.294 551H445.706M445.706 551H495.118M495.118 551H544.529M544.529 551H593.941M593.941 551H643.353M643.353 551H692.765M692.765 551H742.177M742.177 551H791.588" stroke="url(#paint0_radial_2_550)" stroke-opacity="0.08"/>
<defs>
<radialGradient id="paint0_radial_2_550" cx="0" cy="0" r="1" gradientUnits="userSpaceOnUse" gradientTransform="translate(421 290.69) rotate(90) scale(259.722 420.634)">
<stop stop-color="white"/>
<stop offset="1" stop-color="white" stop-opacity="0"/>
</radialGradient>
</defs>
</svg>
