<svg width="40" height="40" viewBox="0 0 40 40" fill="none" xmlns="http://www.w3.org/2000/svg">
<g id="heroicons-solid/gift">
<g id="Subtract">
<path d="M15.625 5C13.8991 5 12.5 6.39911 12.5 8.125C12.5 9.85089 13.8991 11.25 15.625 11.25H18.75V18.75H5.625C3.89911 18.75 2.5 17.3509 2.5 15.625V14.375C2.5 12.6491 3.89911 11.25 5.625 11.25H10.9472C10.3489 10.3562 10 9.28134 10 8.125C10 5.0184 12.5184 2.5 15.625 2.5C17.392 2.5 18.9688 3.31479 20 4.58917C21.0312 3.31479 22.608 2.5 24.375 2.5C27.4816 2.5 30 5.0184 30 8.125C30 9.28134 29.6511 10.3562 29.0528 11.25H35.625C37.3509 11.25 38.75 12.6491 38.75 14.375V15.625C38.75 17.3509 37.3509 18.75 35.625 18.75H21.25V11.25H24.375C26.1009 11.25 27.5 9.85089 27.5 8.125C27.5 6.39911 26.1009 5 24.375 5C22.6491 5 21.25 6.39911 21.25 8.125V11.25H18.75V8.125C18.75 6.39911 17.3509 5 15.625 5Z" fill="white"/>
<path d="M18.75 21.25H5V32.5C5 34.5711 6.67893 36.25 8.75 36.25H18.75V21.25Z" fill="white"/>
<path d="M21.25 21.25V36.25H32.5C34.5711 36.25 36.25 34.5711 36.25 32.5V21.25H21.25Z" fill="white"/>
</g>
</g>
</svg>
