<svg width="40" height="40" viewBox="0 0 40 40" fill="none" xmlns="http://www.w3.org/2000/svg">
<g id="heroicons-solid/ticket">
<path id="Subtract" fill-rule="evenodd" clip-rule="evenodd" d="M2.5 10.625C2.5 8.89911 3.89911 7.5 5.625 7.5H34.375C36.1009 7.5 37.5 8.89911 37.5 10.625V15.6689C37.5 16.1151 37.2621 16.5275 36.8759 16.7509C35.7518 17.4012 35 18.6135 35 20C35 21.3865 35.7518 22.5988 36.8759 23.2491C37.2621 23.4725 37.5 23.8849 37.5 24.3311V29.375C37.5 31.1009 36.1009 32.5 34.375 32.5H5.625C3.89911 32.5 2.5 31.1009 2.5 29.375V24.3311C2.5 23.8849 2.73785 23.4725 3.12409 23.2491C4.24823 22.5988 5 21.3865 5 20C5 18.6135 4.24823 17.4012 3.12409 16.7509C2.73785 16.5275 2.5 16.1151 2.5 15.6689V10.625ZM27.5 8.75C28.1904 8.75 28.75 9.30964 28.75 10V11.25C28.75 11.9404 28.1904 12.5 27.5 12.5C26.8096 12.5 26.25 11.9404 26.25 11.25V10C26.25 9.30964 26.8096 8.75 27.5 8.75ZM28.75 16.25C28.75 15.5596 28.1904 15 27.5 15C26.8096 15 26.25 15.5596 26.25 16.25V17.5C26.25 18.1904 26.8096 18.75 27.5 18.75C28.1904 18.75 28.75 18.1904 28.75 17.5V16.25ZM27.5 21.25C28.1904 21.25 28.75 21.8096 28.75 22.5V23.75C28.75 24.4404 28.1904 25 27.5 25C26.8096 25 26.25 24.4404 26.25 23.75V22.5C26.25 21.8096 26.8096 21.25 27.5 21.25ZM28.75 28.75C28.75 28.0596 28.1904 27.5 27.5 27.5C26.8096 27.5 26.25 28.0596 26.25 28.75V30C26.25 30.6904 26.8096 31.25 27.5 31.25C28.1904 31.25 28.75 30.6904 28.75 30V28.75ZM10 20C10 19.3096 10.5596 18.75 11.25 18.75H20C20.6904 18.75 21.25 19.3096 21.25 20C21.25 20.6904 20.6904 21.25 20 21.25H11.25C10.5596 21.25 10 20.6904 10 20ZM11.25 23.75C10.5596 23.75 10 24.3096 10 25C10 25.6904 10.5596 26.25 11.25 26.25H16.25C16.9404 26.25 17.5 25.6904 17.5 25C17.5 24.3096 16.9404 23.75 16.25 23.75H11.25Z" fill="white"/>
</g>
</svg>
